<svg width="13" height="8" viewBox="0 0 13 8" fill="none" xmlns="http://www.w3.org/2000/svg">
<path d="M0.5 1.47013C0.5 1.73775 0.592051 1.96356 0.776151 2.14755L5.73849 7.15711C5.96444 7.39128 6.20711 7.5 6.5 7.5C6.79289 7.5 7.04393 7.39128 7.26151 7.16547L12.2238 2.14755C12.4079 1.96356 12.5 1.73775 12.5 1.47013C12.5 0.934886 12.0732 0.5 11.5377 0.5C11.2699 0.5 11.0272 0.608722 10.8264 0.801075L6.49163 5.20012L2.16527 0.801075C1.9728 0.608722 1.73013 0.5 1.46234 0.5C0.926778 0.5 0.5 0.934886 0.5 1.47013Z" fill="#EF7A26"/>
</svg>
