<svg width="128" height="98" fill="none" xmlns="http://www.w3.org/2000/svg"><mask id="path-1-inside-1_0_558" fill="#fff"><path fill-rule="evenodd" clip-rule="evenodd" d="M84.498 6.356l23.89-2.39c2.739-.273 4.949 2.22 4.366 4.91-2.165 9.984-6.409 31.426-6.252 45.457l19.013-2.716c2.094-.299 3.159 2.433 1.414 3.63L65.118 97.63a2 2 0 01-2.262 0L1.045 55.247c-1.745-1.197-.68-3.929 1.414-3.63l18.823 2.69c.217-14.5-3.915-35.548-6.053-45.412-.584-2.693 1.627-5.201 4.37-4.927l23.877 2.388C49.21 6.08 54.96 5.124 59.487 2.907c.686-.336 1.21-.778 1.707-1.197.81-.682 1.547-1.303 2.793-1.303 1.246 0 1.983.62 2.793 1.303.496.419 1.02.86 1.707 1.197 4.526 2.217 10.276 3.174 16.011 3.449z"/></mask><g filter="url(#filter0_i_0_558)"><path fill-rule="evenodd" clip-rule="evenodd" d="M84.498 6.356l23.89-2.39c2.739-.273 4.949 2.22 4.366 4.91-2.165 9.984-6.409 31.426-6.252 45.457l19.013-2.716c2.094-.299 3.159 2.433 1.414 3.63L65.118 97.63a2 2 0 01-2.262 0L1.045 55.247c-1.745-1.197-.68-3.929 1.414-3.63l18.823 2.69c.217-14.5-3.915-35.548-6.053-45.412-.584-2.693 1.627-5.201 4.37-4.927l23.877 2.388C49.21 6.08 54.96 5.124 59.487 2.907c.686-.336 1.21-.778 1.707-1.197.81-.682 1.547-1.303 2.793-1.303 1.246 0 1.983.62 2.793 1.303.496.419 1.02.86 1.707 1.197 4.526 2.217 10.276 3.174 16.011 3.449z" fill="url(#paint0_linear_0_558)"/></g><path d="M108.388 3.967l.398 3.98-.398-3.98zm-23.89 2.389l-.191 3.995.295.014.294-.029-.398-3.98zm28.256 2.52l-3.909-.848 3.909.847zm-6.252 45.457l-4 .045.051 4.56 4.514-.645-.565-3.96zm19.013-2.716l-.565-3.96.565 3.96zm1.414 3.63l2.262 3.298-2.262-3.298zM65.118 97.63l-2.262-3.299 2.262 3.3zm-2.262 0l-2.262 3.299 2.262-3.299zM1.045 55.247l2.262-3.3-2.262 3.3zm1.414-3.63l.565-3.96-.565 3.96zm18.823 2.69l-.566 3.96 4.498.642.068-4.543-4-.06zM15.229 8.894l3.909-.848-3.91.848zm4.37-4.927l.397-3.98-.398 3.98zm23.877 2.388l-.398 3.98.294.03.295-.015-.191-3.995zm16.011-3.449l1.76 3.592-1.76-3.592zm1.707-1.197l-2.577-3.058 2.577 3.058zm5.586 0L64.202 4.77l2.578-3.06zm1.707 1.197l-1.76 3.592 1.76-3.592zm39.503-2.92L84.1 2.376l.796 7.96 23.89-2.389-.796-7.96zm8.673 9.736c1.155-5.326-3.214-10.282-8.673-9.736l.796 7.96h.019l-.004-.002s.011.005.026.022c.014.016.02.03.021.034v.003l-.003.024 7.818 1.695zm-6.162 44.566c-.151-13.51 3.984-34.52 6.162-44.566l-7.818-1.695c-2.152 9.923-6.506 31.797-6.343 46.35l7.999-.09zm14.449-6.632l-19.014 2.717 1.131 7.92 19.014-2.717-1.131-7.92zm4.241 10.889c5.234-3.59 2.041-11.786-4.241-10.889l1.131 7.92c-2.094.3-3.158-2.433-1.414-3.63l4.524 6.598zm-61.81 42.384l61.81-42.385-4.524-6.597-61.811 42.384 4.524 6.598zm-6.787 0a5.997 5.997 0 006.786 0l-4.524-6.598a2 2 0 012.262 0l-4.524 6.598zM-1.217 58.545l61.81 42.385 4.525-6.598L3.307 51.948l-4.524 6.597zm4.241-10.888c-6.282-.897-9.475 7.3-4.241 10.889l4.524-6.598c1.744 1.196.68 3.928-1.414 3.63l1.131-7.92zm18.824 2.69l-18.824-2.69-1.131 7.92 18.823 2.69 1.132-7.92zM11.319 9.742c2.148 9.907 6.172 30.528 5.963 44.504l8 .12c.224-15.023-4.015-36.497-6.144-46.319l-7.819 1.695zm8.677-9.754c-5.48-.548-9.828 4.442-8.677 9.755l7.819-1.696a.106.106 0 01-.004-.026l.002-.008a.119.119 0 01.025-.043c.017-.018.03-.024.029-.024l-.006.002h.016l.796-7.96zm23.878 2.388L19.996-.012l-.796 7.96 23.878 2.388.796-7.96zm-.207 7.975c5.963-.286 12.342-1.286 17.58-3.852l-3.52-7.184c-3.814 1.868-8.934 2.781-14.443 3.045l.383 7.991zM61.247 6.5c1.187-.581 2.057-1.336 2.525-1.73l-5.155-6.117c-.526.443-.704.572-.89.663l3.52 7.184zm2.525-1.73l.264-.221a6.45 6.45 0 01.185-.147c.1-.076.133-.093.12-.086a.776.776 0 01-.167.063.773.773 0 01-.187.029v-8c-2.86 0-4.615 1.608-5.37 2.245l5.155 6.117zm.215-.362a.773.773 0 01-.187-.029.802.802 0 01-.168-.063c-.012-.007.021.01.121.086.05.037.109.084.185.147l.264.221 5.155-6.117c-.755-.637-2.51-2.245-5.37-2.245v8zm.215.362c.468.394 1.338 1.149 2.525 1.73l3.52-7.184c-.186-.091-.364-.22-.89-.663L64.202 4.77zm2.526 1.73c5.237 2.566 11.616 3.567 17.579 3.852l.383-7.99c-5.51-.267-10.63-1.18-14.444-3.048l-3.518 7.184z" fill="url(#paint1_linear_0_558)" mask="url(#path-1-inside-1_0_558)"/><defs><linearGradient id="paint0_linear_0_558" x1="63.987" y1=".407" x2="63.987" y2="97.982" gradientUnits="userSpaceOnUse"><stop stop-color="#640B00"/><stop offset="1" stop-color="#8E022C"/></linearGradient><linearGradient id="paint1_linear_0_558" x1="64.721" y1=".407" x2="64.721" y2="97.982" gradientUnits="userSpaceOnUse"><stop stop-color="#FCE361"/><stop offset="1" stop-color="#E63801"/></linearGradient><filter id="filter0_i_0_558" x=".169" y=".407" width="127.636" height="99.575" filterUnits="userSpaceOnUse" color-interpolation-filters="sRGB"><feFlood flood-opacity="0" result="BackgroundImageFix"/><feBlend in="SourceGraphic" in2="BackgroundImageFix" result="shape"/><feColorMatrix in="SourceAlpha" values="0 0 0 0 0 0 0 0 0 0 0 0 0 0 0 0 0 0 127 0" result="hardAlpha"/><feOffset dy="2"/><feGaussianBlur stdDeviation="4"/><feComposite in2="hardAlpha" operator="arithmetic" k2="-1" k3="1"/><feColorMatrix values="0 0 0 0 0 0 0 0 0 0 0 0 0 0 0 0 0 0 1 0"/><feBlend in2="shape" result="effect1_innerShadow_0_558"/></filter></defs></svg>