<svg width="31" height="4" viewBox="0 0 31 4" fill="none" xmlns="http://www.w3.org/2000/svg">
<path d="M93 21.5643V29.5643C93 38.4008 85.8365 45.5643 77 45.5643H29.921C27.7714 45.5643 25.6358 45.9108 23.5964 46.5906L20.0596 47.7695C16.7754 48.8643 13.2246 48.8643 9.94035 47.7695L6.40356 46.5906C4.36423 45.9108 2.22865 45.5643 0.0790024 45.5643H-47C-55.8366 45.5643 -63 38.4008 -63 29.5643V21.5643C-63 12.7277 -55.8366 5.56427 -47 5.56427H0.0790024C2.22865 5.56427 4.36423 5.21771 6.40356 4.53794L9.94035 3.359C13.2246 2.26425 16.7754 2.26425 20.0596 3.359L23.5964 4.53794C25.6358 5.21771 27.7714 5.56427 29.921 5.56427H77C85.8365 5.56427 93 12.7277 93 21.5643Z" stroke="url(#paint0_linear_177_4275)" stroke-width="4"/>
<defs>
<linearGradient id="paint0_linear_177_4275" x1="-105" y1="3.56427" x2="96.2421" y2="54.6734" gradientUnits="userSpaceOnUse">
<stop stop-color="#FCD161"/>
<stop offset="1" stop-color="#E63801"/>
</linearGradient>
</defs>
</svg>
