<svg width="161" height="51" viewBox="0 0 161 51" fill="none" xmlns="http://www.w3.org/2000/svg">
<path d="M158.353 21.8295V29.8295C158.353 38.6661 151.189 45.8295 142.353 45.8295H95.2735C93.1239 45.8295 90.9883 46.1761 88.949 46.8559L85.4122 48.0348C82.1279 49.1296 78.5772 49.1296 75.2929 48.0348L71.7561 46.8559C69.7168 46.1761 67.5812 45.8295 65.4315 45.8295H18.3525C9.51598 45.8295 2.35254 38.6661 2.35254 29.8295V21.8295C2.35254 12.993 9.51598 5.82953 18.3525 5.82953H65.4315C67.5812 5.82953 69.7168 5.48297 71.7561 4.80319L75.2929 3.62426C78.5772 2.52951 82.1279 2.52951 85.4122 3.62426L88.949 4.80319C90.9883 5.48297 93.1239 5.82953 95.2735 5.82953H142.353C151.189 5.82953 158.353 12.993 158.353 21.8295Z" stroke="url(#paint0_linear_34_3608)" stroke-width="4"/>
<defs>
<linearGradient id="paint0_linear_34_3608" x1="-39.6475" y1="3.82953" x2="161.595" y2="54.9386" gradientUnits="userSpaceOnUse">
<stop stop-color="#FCD161"/>
<stop offset="1" stop-color="#E63801"/>
</linearGradient>
</defs>
</svg>
