<svg width="131" height="21" viewBox="0 0 131 21" fill="none" xmlns="http://www.w3.org/2000/svg">
    <path d="M21.4894 3.1773L57.2992 6.84268C59.3265 7.05018 61.3732 6.73719 63.2458 5.93328C65.0043 5.17836 66.9957 5.17836 68.7542 5.93328C70.6268 6.73719 72.6735 7.05018 74.7008 6.84268L111.334 3.09297C114.388 2.7804 117.43 3.79051 119.689 5.86786C120.967 7.04229 122.412 7.97517 123.935 8.69051C124.777 9.08605 125.756 9.56017 126.658 10.0303C125.756 10.5004 124.777 10.9746 123.935 11.3701C122.412 12.0854 120.967 13.0183 119.689 14.1927C117.43 16.2701 114.388 17.2802 111.334 16.9676L74.7008 13.2179C72.6735 13.0104 70.6268 13.3234 68.7542 14.1273C66.9957 14.8822 65.0043 14.8822 63.2458 14.1273C61.3732 13.3234 59.3265 13.0104 57.2992 13.2179L21.4894 16.8833C17.8097 17.26 14.1277 16.1906 11.2222 13.9014C9.94057 12.8917 8.55392 12.0682 7.12304 11.3973C6.26888 10.9968 5.2652 10.5116 4.34247 10.0303C5.2652 9.54897 6.26888 9.06376 7.12304 8.66327C8.55392 7.99237 9.94057 7.16893 11.2222 6.1592C14.1277 3.87 17.8097 2.80065 21.4894 3.1773Z" stroke="url(#paint0_linear_955_43554)" stroke-width="5"/>
    <path d="M16 3.03027H115C118.866 3.03027 122 6.16428 122 10.0303C122 13.8963 118.866 17.0303 115 17.0303H16C12.134 17.0303 9 13.8963 9 10.0303C9 6.16428 12.134 3.03027 16 3.03027Z" fill="url(#paint1_linear_955_43554)" stroke="url(#paint2_linear_955_43554)" stroke-width="2"/>
    <defs>
        <linearGradient id="paint0_linear_955_43554" x1="0" y1="0" x2="127.946" y2="32.1528" gradientUnits="userSpaceOnUse">
            <stop stop-color="#FCD161"/>
            <stop offset="1" stop-color="#E63801"/>
        </linearGradient>
        <linearGradient id="paint1_linear_955_43554" x1="65.5" y1="2.03027" x2="65.5" y2="18.0303" gradientUnits="userSpaceOnUse">
            <stop stop-color="#640B00"/>
            <stop offset="1" stop-color="#8E022C"/>
        </linearGradient>
        <linearGradient id="paint2_linear_955_43554" x1="-1" y1="3.19172e-06" x2="99.4835" y2="67.1567" gradientUnits="userSpaceOnUse">
            <stop stop-color="#FCD161"/>
            <stop offset="1" stop-color="#E63801"/>
        </linearGradient>
    </defs>
</svg>
