<svg width="29" height="58" viewBox="0 0 29 58" fill="none" xmlns="http://www.w3.org/2000/svg">
<path d="M28.4971 54.2349C28.6924 54.0396 28.6924 53.723 28.4971 53.5278L25.3151 50.3458C25.1199 50.1505 24.8033 50.1505 24.608 50.3458C24.4128 50.541 24.4128 50.8576 24.608 51.0529L27.4364 53.8813L24.608 56.7097C24.4128 56.905 24.4128 57.2216 24.608 57.4168C24.8033 57.6121 25.1199 57.6121 25.3151 57.4168L28.4971 54.2349ZM9 53.8813L9 53.3813L9 53.8813ZM1.00003 45.8813L1.50003 45.8813L1.00003 45.8813ZM28.1436 53.3813L9 53.3813L9 54.3813L28.1436 54.3813L28.1436 53.3813ZM1.50003 45.8813L1.50003 3.65068e-05L0.500026 3.65925e-05L0.500025 45.8813L1.50003 45.8813ZM9 53.3813C4.85787 53.3813 1.50003 50.0234 1.50003 45.8813L0.500025 45.8813C0.500025 50.5757 4.30559 54.3813 9 54.3813L9 53.3813Z" fill="url(#paint0_linear_1_2673)"/>
<defs>
<linearGradient id="paint0_linear_1_2673" x1="14" y1="-0.000119621" x2="14" y2="60.9999" gradientUnits="userSpaceOnUse">
<stop stop-color="#E63801"/>
<stop offset="1" stop-color="#FCE361"/>
</linearGradient>
</defs>
</svg>
