<svg width="31" height="56" viewBox="0 0 31 56" fill="none" xmlns="http://www.w3.org/2000/svg">
<path d="M11.7417 1.42634L11.7417 1.92634L11.7417 1.42634ZM3.74172 9.42634L4.24172 9.42634L3.74172 9.42634ZM4.09528 55.6611C3.90002 55.8564 3.58343 55.8564 3.38817 55.6611L0.206191 52.4792C0.0109282 52.2839 0.0109288 51.9673 0.206191 51.772C0.401453 51.5768 0.718036 51.5768 0.913298 51.772L3.74172 54.6005L6.57015 51.772C6.76541 51.5768 7.082 51.5768 7.27726 51.772C7.47252 51.9673 7.47252 52.2839 7.27726 52.4792L4.09528 55.6611ZM30.8853 1.92631L11.7417 1.92634L11.7417 0.926339L30.8853 0.926307L30.8853 1.92631ZM4.24172 9.42634L4.24172 55.3076L3.24172 55.3076L3.24172 9.42634L4.24172 9.42634ZM11.7417 1.92634C7.59957 1.92635 4.24172 5.28421 4.24172 9.42634L3.24172 9.42634C3.24172 4.73193 7.04729 0.926347 11.7417 0.926339L11.7417 1.92634Z" fill="url(#paint0_linear_1_2674)"/>
<defs>
<linearGradient id="paint0_linear_1_2674" x1="16.7417" y1="55.3077" x2="16.7417" y2="-5.69226" gradientUnits="userSpaceOnUse">
<stop stop-color="#E63801"/>
<stop offset="1" stop-color="#FCE361"/>
</linearGradient>
</defs>
</svg>
