<svg width="235" height="109" viewBox="0 0 235 109" fill="none" xmlns="http://www.w3.org/2000/svg">
<path d="M26.6555 89.5998C23.0715 89.5998 19.6155 89.1198 16.2875 88.1598C12.9595 87.2638 10.2395 85.9518 8.1275 84.2238C6.0155 82.4318 4.9595 80.3838 4.9595 78.0798V66.8478H7.6475C8.6075 73.3758 10.6235 78.0798 13.6955 80.9598C16.7675 83.8398 21.0555 85.2798 26.5595 85.2798C30.2715 85.2798 33.2155 84.4798 35.3915 82.8798C37.5675 81.2798 38.6555 78.9758 38.6555 75.9678C38.6555 73.4078 37.8555 71.2318 36.2555 69.4398C34.6555 67.6478 32.1595 65.6958 28.7675 63.5838L16.9595 56.4798C12.6715 53.9838 9.5995 51.3918 7.7435 48.7038C5.9515 46.0158 5.0555 42.8798 5.0555 39.2958C5.0555 34.2398 6.9755 30.2398 10.8155 27.2958C14.7195 24.3518 19.9675 22.8798 26.5595 22.8798C30.1435 22.8798 33.5995 23.3598 36.9275 24.3198C40.2555 25.2158 42.9755 26.5598 45.0875 28.3518C47.1995 30.0798 48.2555 32.0958 48.2555 34.3998V45.6318H45.5675C44.4795 39.1038 42.4635 34.3998 39.5195 31.5198C36.5755 28.6398 32.6075 27.1998 27.6155 27.1998C24.1595 27.1998 21.4075 28.0318 19.3595 29.6958C17.3755 31.3598 16.3835 33.6318 16.3835 36.5118C16.3835 39.0078 17.1515 41.0878 18.6875 42.7518C20.2875 44.3518 22.8475 46.1758 26.3675 48.2238L38.1755 55.2318C42.6555 57.8558 45.8555 60.4158 47.7755 62.9118C49.7595 65.3438 50.7515 68.2878 50.7515 71.7438C50.7515 77.3118 48.6395 81.6958 44.4155 84.8958C40.2555 88.0318 34.3355 89.5998 26.6555 89.5998ZM72.98 88.9278C66.9 88.9278 62.42 87.5198 59.54 84.7038C56.66 81.8878 55.22 77.4078 55.22 71.2638V55.3278C55.22 52.0638 54.772 49.6638 53.876 48.1278C52.98 46.5278 51.188 45.7278 48.5 45.7278H47.54V42.8478H59.06C61.364 42.8478 63.124 43.2318 64.34 43.9998C65.556 44.7678 66.42 46.0478 66.932 47.8398C67.444 49.5678 67.7 52.0638 67.7 55.3278V71.3598C67.7 76.1598 68.372 79.5838 69.716 81.6318C71.06 83.6158 73.108 84.6078 75.86 84.6078C78.228 84.6078 80.372 83.5838 82.292 81.5358C82.996 80.8318 83.732 79.7758 84.5 78.3678V42.8478H96.98V87.9678H88.82L85.46 83.6478H84.98C84.084 84.6078 83.028 85.5038 81.812 86.3358C79.38 88.0638 76.436 88.9278 72.98 88.9278ZM102.205 37.0878C102.205 33.8238 101.757 31.4238 100.861 29.8878C99.9652 28.2878 98.1732 27.4878 95.4852 27.4878H94.5252V24.6078H106.045C108.349 24.6078 110.109 24.9918 111.325 25.7598C112.541 26.5278 113.405 27.8078 113.917 29.5998C114.429 31.3278 114.685 33.8238 114.685 37.0878V87.9678H102.205V37.0878ZM133.867 88.9278C129.451 88.9278 126.027 87.7438 123.595 85.3758C121.163 82.9438 119.947 79.4558 119.947 74.9118V47.1678H114.187V42.8478H119.947V34.2078L124.747 28.4478H132.427V42.8478H142.987V47.1678H132.427V75.4878C132.427 78.9438 132.843 81.3438 133.675 82.6878C134.507 83.9678 135.755 84.6078 137.419 84.6078C139.211 84.6078 141.003 84.1918 142.795 83.3598C143.499 82.9758 144.235 82.5278 145.003 82.0158L146.347 84.7038C145.515 85.4078 144.523 86.1118 143.371 86.8158C140.683 88.2238 137.515 88.9278 133.867 88.9278ZM158.493 88.9278C153.309 88.9278 149.277 87.7758 146.397 85.4718C143.581 83.1038 142.173 79.9358 142.173 75.9678C142.173 72.7678 142.909 70.1118 144.381 67.9998C145.917 65.8878 148.573 64.2878 152.349 63.1998C156.125 62.1118 161.373 61.5678 168.093 61.5678H169.533C169.533 55.9998 168.765 52.0638 167.229 49.7598C165.693 47.3918 163.421 46.2078 160.413 46.2078C157.917 46.2078 155.869 46.8158 154.269 48.0318C152.669 49.2478 151.517 51.5198 150.813 54.8478H145.533C145.533 52.6718 145.661 50.8158 145.917 49.2798C146.237 47.7438 146.909 46.3998 147.933 45.2478C149.917 43.0078 154.717 41.8878 162.333 41.8878C168.733 41.8878 173.597 43.5838 176.925 46.9758C180.317 50.3038 182.013 55.3278 182.013 62.0478V87.9678H173.853L170.493 83.6478H170.013C169.437 84.5438 168.541 85.4398 167.325 86.3358C165.149 88.0638 162.205 88.9278 158.493 88.9278ZM161.373 84.1278C162.717 84.1278 163.869 83.8718 164.829 83.3598C165.789 82.7838 166.717 82.0158 167.613 81.0558C168.445 80.1598 169.085 79.1038 169.533 77.8878V65.8878H168.093C163.549 65.8878 160.253 66.7198 158.205 68.3838C156.157 69.9838 155.133 72.5118 155.133 75.9678C155.133 78.5918 155.677 80.6078 156.765 82.0158C157.853 83.4238 159.389 84.1278 161.373 84.1278ZM187.014 55.3278C187.014 52.0638 186.566 49.6638 185.67 48.1278C184.838 46.5278 183.078 45.7278 180.39 45.7278H179.43V42.8478H188.934C191.11 42.8478 192.806 43.1358 194.022 43.7118C195.302 44.2238 196.294 45.1198 196.998 46.3998C200.262 43.3918 204.934 41.8878 211.014 41.8878C217.094 41.8878 221.638 43.3278 224.646 46.2078C227.718 49.0238 229.254 53.4718 229.254 59.5518V87.9678H216.774V59.4558C216.774 55.0398 215.942 51.8078 214.278 49.7598C212.678 47.7118 210.47 46.6878 207.654 46.6878C205.67 46.6878 203.91 46.9758 202.374 47.5518C200.902 48.0638 199.718 48.7678 198.822 49.6638L199.11 51.0078C199.366 51.7758 199.494 53.0238 199.494 54.7518V87.9678H187.014V55.3278Z" fill="url(#paint0_linear_34_2767)"/>
<path d="M26.6555 91.5998C23.0715 91.5998 19.6155 91.1198 16.2875 90.1598C12.9595 89.2638 10.2395 87.9518 8.1275 86.2238C6.0155 84.4318 4.9595 82.3838 4.9595 80.0798V68.8478H7.6475C8.6075 75.3758 10.6235 80.0798 13.6955 82.9598C16.7675 85.8398 21.0555 87.2798 26.5595 87.2798C30.2715 87.2798 33.2155 86.4798 35.3915 84.8798C37.5675 83.2798 38.6555 80.9758 38.6555 77.9678C38.6555 75.4078 37.8555 73.2318 36.2555 71.4398C34.6555 69.6478 32.1595 67.6958 28.7675 65.5838L16.9595 58.4798C12.6715 55.9838 9.5995 53.3918 7.7435 50.7038C5.9515 48.0158 5.0555 44.8798 5.0555 41.2958C5.0555 36.2398 6.9755 32.2398 10.8155 29.2958C14.7195 26.3518 19.9675 24.8798 26.5595 24.8798C30.1435 24.8798 33.5995 25.3598 36.9275 26.3198C40.2555 27.2158 42.9755 28.5598 45.0875 30.3518C47.1995 32.0798 48.2555 34.0958 48.2555 36.3998V47.6318H45.5675C44.4795 41.1038 42.4635 36.3998 39.5195 33.5198C36.5755 30.6398 32.6075 29.1998 27.6155 29.1998C24.1595 29.1998 21.4075 30.0318 19.3595 31.6958C17.3755 33.3598 16.3835 35.6318 16.3835 38.5118C16.3835 41.0078 17.1515 43.0878 18.6875 44.7518C20.2875 46.3518 22.8475 48.1758 26.3675 50.2238L38.1755 57.2318C42.6555 59.8558 45.8555 62.4158 47.7755 64.9118C49.7595 67.3438 50.7515 70.2878 50.7515 73.7438C50.7515 79.3118 48.6395 83.6958 44.4155 86.8958C40.2555 90.0318 34.3355 91.5998 26.6555 91.5998ZM72.98 90.9278C66.9 90.9278 62.42 89.5198 59.54 86.7038C56.66 83.8878 55.22 79.4078 55.22 73.2638V57.3278C55.22 54.0638 54.772 51.6638 53.876 50.1278C52.98 48.5278 51.188 47.7278 48.5 47.7278H47.54V44.8478H59.06C61.364 44.8478 63.124 45.2318 64.34 45.9998C65.556 46.7678 66.42 48.0478 66.932 49.8398C67.444 51.5678 67.7 54.0638 67.7 57.3278V73.3598C67.7 78.1598 68.372 81.5838 69.716 83.6318C71.06 85.6158 73.108 86.6078 75.86 86.6078C78.228 86.6078 80.372 85.5838 82.292 83.5358C82.996 82.8318 83.732 81.7758 84.5 80.3678V44.8478H96.98V89.9678H88.82L85.46 85.6478H84.98C84.084 86.6078 83.028 87.5038 81.812 88.3358C79.38 90.0638 76.436 90.9278 72.98 90.9278ZM102.205 39.0878C102.205 35.8238 101.757 33.4238 100.861 31.8878C99.9652 30.2878 98.1732 29.4878 95.4852 29.4878H94.5252V26.6078H106.045C108.349 26.6078 110.109 26.9918 111.325 27.7598C112.541 28.5278 113.405 29.8078 113.917 31.5998C114.429 33.3278 114.685 35.8238 114.685 39.0878V89.9678H102.205V39.0878ZM133.867 90.9278C129.451 90.9278 126.027 89.7438 123.595 87.3758C121.163 84.9438 119.947 81.4558 119.947 76.9118V49.1678H114.187V44.8478H119.947V36.2078L124.747 30.4478H132.427V44.8478H142.987V49.1678H132.427V77.4878C132.427 80.9438 132.843 83.3438 133.675 84.6878C134.507 85.9678 135.755 86.6078 137.419 86.6078C139.211 86.6078 141.003 86.1918 142.795 85.3598C143.499 84.9758 144.235 84.5278 145.003 84.0158L146.347 86.7038C145.515 87.4078 144.523 88.1118 143.371 88.8158C140.683 90.2238 137.515 90.9278 133.867 90.9278ZM158.493 90.9278C153.309 90.9278 149.277 89.7758 146.397 87.4718C143.581 85.1038 142.173 81.9358 142.173 77.9678C142.173 74.7678 142.909 72.1118 144.381 69.9998C145.917 67.8878 148.573 66.2878 152.349 65.1998C156.125 64.1118 161.373 63.5678 168.093 63.5678H169.533C169.533 57.9998 168.765 54.0638 167.229 51.7598C165.693 49.3918 163.421 48.2078 160.413 48.2078C157.917 48.2078 155.869 48.8158 154.269 50.0318C152.669 51.2478 151.517 53.5198 150.813 56.8478H145.533C145.533 54.6718 145.661 52.8158 145.917 51.2798C146.237 49.7438 146.909 48.3998 147.933 47.2478C149.917 45.0078 154.717 43.8878 162.333 43.8878C168.733 43.8878 173.597 45.5838 176.925 48.9758C180.317 52.3038 182.013 57.3278 182.013 64.0478V89.9678H173.853L170.493 85.6478H170.013C169.437 86.5438 168.541 87.4398 167.325 88.3358C165.149 90.0638 162.205 90.9278 158.493 90.9278ZM161.373 86.1278C162.717 86.1278 163.869 85.8718 164.829 85.3598C165.789 84.7838 166.717 84.0158 167.613 83.0558C168.445 82.1598 169.085 81.1038 169.533 79.8878V67.8878H168.093C163.549 67.8878 160.253 68.7198 158.205 70.3838C156.157 71.9838 155.133 74.5118 155.133 77.9678C155.133 80.5918 155.677 82.6078 156.765 84.0158C157.853 85.4238 159.389 86.1278 161.373 86.1278ZM187.014 57.3278C187.014 54.0638 186.566 51.6638 185.67 50.1278C184.838 48.5278 183.078 47.7278 180.39 47.7278H179.43V44.8478H188.934C191.11 44.8478 192.806 45.1358 194.022 45.7118C195.302 46.2238 196.294 47.1198 196.998 48.3998C200.262 45.3918 204.934 43.8878 211.014 43.8878C217.094 43.8878 221.638 45.3278 224.646 48.2078C227.718 51.0238 229.254 55.4718 229.254 61.5518V89.9678H216.774V61.4558C216.774 57.0398 215.942 53.8078 214.278 51.7598C212.678 49.7118 210.47 48.6878 207.654 48.6878C205.67 48.6878 203.91 48.9758 202.374 49.5518C200.902 50.0638 199.718 50.7678 198.822 51.6638L199.11 53.0078C199.366 53.7758 199.494 55.0238 199.494 56.7518V89.9678H187.014V57.3278Z" fill="url(#paint1_linear_34_2767)"/>
<path d="M88.9001 89.9676C77.4001 76.4675 97.0001 86.9677 97.0001 89.9676C97.0001 92.9675 102.2 92.4675 102.2 89.9676C102.2 87.4677 114.7 85.4677 114.7 89.9676C114.7 94.4676 100.4 103.468 88.9001 89.9676Z" fill="#EC5B18"/>
<path d="M169 44.8677C172.5 44.8676 174 42.8476 180 42.8477C186 42.8477 182 47.7277 180 47.7277C178 47.7277 178 47.4676 175 48.8677C172 50.2677 165.5 44.8677 169 44.8677Z" fill="url(#paint2_linear_34_2767)"/>
<path d="M74 27.0477C74 25.7056 75.0879 24.6177 76.43 24.6177H95V29.4777H76.43C75.0879 29.4777 74 28.3897 74 27.0477Z" fill="url(#paint3_linear_34_2767)"/>
<defs>
<linearGradient id="paint0_linear_34_2767" x1="118.851" y1="0.967772" x2="118.851" y2="108.968" gradientUnits="userSpaceOnUse">
<stop stop-color="#FCE361"/>
<stop offset="1" stop-color="#E63801"/>
</linearGradient>
<linearGradient id="paint1_linear_34_2767" x1="118.851" y1="2.96777" x2="118.851" y2="110.968" gradientUnits="userSpaceOnUse">
<stop stop-color="#FCE361"/>
<stop offset="1" stop-color="#E63801"/>
</linearGradient>
<linearGradient id="paint2_linear_34_2767" x1="175.257" y1="42.8177" x2="175.257" y2="49.0994" gradientUnits="userSpaceOnUse">
<stop stop-color="#F4A13C"/>
<stop offset="1" stop-color="#F39A38"/>
</linearGradient>
<linearGradient id="paint3_linear_34_2767" x1="85.5" y1="24.6177" x2="85.5" y2="29.4777" gradientUnits="userSpaceOnUse">
<stop stop-color="#F7BE4C"/>
<stop offset="1" stop-color="#F7BA4A"/>
</linearGradient>
</defs>
</svg>
