<svg width="79" height="21" fill="none" xmlns="http://www.w3.org/2000/svg"><path d="M11.203 6.175A14.05 14.05 0 0121.48 3.25l15.393 1.744c.885.1 1.78.025 2.636-.22.321-.093.661-.093.982 0a6.773 6.773 0 002.636.22l16.218-1.837c3.05-.346 6.101.649 8.362 2.726a16.655 16.655 0 004.208 2.798c.846.397 1.834.875 2.742 1.35-.908.473-1.896.951-2.742 1.349a16.654 16.654 0 00-4.209 2.797 10.593 10.593 0 01-8.36 2.727l-16.219-1.838a6.773 6.773 0 00-2.636.221 1.763 1.763 0 01-.982 0 6.773 6.773 0 00-2.636-.22L21.48 16.81a14.05 14.05 0 01-10.277-2.924 20.797 20.797 0 00-4.058-2.478 75.643 75.643 0 01-2.803-1.378 76.01 76.01 0 012.803-1.377 20.791 20.791 0 004.058-2.478L9.655 4.21l1.548 1.964z" stroke="url(#paint0_linear_0_840)" stroke-width="5"/><path d="M9 10.03a7 7 0 017-7h48a7 7 0 010 14H16a7 7 0 01-7-7z" fill="url(#paint1_linear_0_840)" stroke="url(#paint2_linear_0_840)" stroke-width="2"/><defs><linearGradient id="paint0_linear_0_840" x1="0" y1="20" x2="80.176" y2="7.615" gradientUnits="userSpaceOnUse"><stop stop-color="#E63801"/><stop offset="1" stop-color="#FCD161"/></linearGradient><linearGradient id="paint1_linear_0_840" x1="40" y1="2.03" x2="40" y2="18.03" gradientUnits="userSpaceOnUse"><stop stop-color="#640B00"/><stop offset="1" stop-color="#8E022C"/></linearGradient><linearGradient id="paint2_linear_0_840" x1=".5" y1="20" x2="80.614" y2="7.84" gradientUnits="userSpaceOnUse"><stop stop-color="#E63801"/><stop offset="1" stop-color="#FCD161"/></linearGradient><linearGradient id="paint3_linear_0_840" x1="41.253" y1="3" x2="41.253" y2="15" gradientUnits="userSpaceOnUse"><stop stop-color="#FCE361"/><stop offset="1" stop-color="#E63801"/></linearGradient></defs></svg>