<svg width="163" height="52" viewBox="0 0 163 52" fill="none" xmlns="http://www.w3.org/2000/svg"><g filter="url(#filter0_d_270_2625)"><path d="M37.4894 21.1773L73.2992 24.8427C75.3265 25.0502 77.3732 24.7372 79.2458 23.9333C81.0043 23.1784 82.9957 23.1784 84.7542 23.9333C86.6268 24.7372 88.6735 25.0502 90.7008 24.8427L127.334 21.093C130.388 20.7804 133.43 21.7905 135.689 23.8679C136.967 25.0423 138.412 25.9752 139.935 26.6905C140.777 27.0861 141.756 27.5602 142.658 28.0303C141.756 28.5004 140.777 28.9746 139.935 29.3701C138.412 30.0854 136.967 31.0183 135.689 32.1927C133.43 34.2701 130.388 35.2802 127.334 34.9676L90.7008 31.2179C88.6735 31.0104 86.6268 31.3234 84.7542 32.1273C82.9957 32.8822 81.0043 32.8822 79.2458 32.1273C77.3732 31.3234 75.3265 31.0104 73.2992 31.2179L37.4894 34.8833C33.8097 35.26 30.1277 34.1906 27.2222 31.9014C25.9406 30.8917 24.5539 30.0682 23.123 29.3973C22.2689 28.9968 21.2652 28.5116 20.3425 28.0303C21.2652 27.549 22.2689 27.0638 23.123 26.6633C24.5539 25.9924 25.9406 25.1689 27.2222 24.1592C30.1277 21.87 33.8097 20.8007 37.4894 21.1773Z" stroke="url(#paint0_linear_270_2625)" stroke-width="5"></path></g><path d="M32 21.0303H131C134.866 21.0303 138 24.1643 138 28.0303C138 31.8963 134.866 35.0303 131 35.0303H32C28.134 35.0303 25 31.8963 25 28.0303C25 24.1643 28.134 21.0303 32 21.0303Z" fill="url(#paint1_linear_270_2625)" stroke="url(#paint2_linear_270_2625)" stroke-width="2"></path><circle cx="32" cy="28" r="4" fill="url(#paint3_linear_270_2625)"></circle><circle cx="32" cy="28" r="4" fill="url(#paint4_linear_270_2625)"></circle><circle cx="41" cy="28" r="4" fill="url(#paint5_linear_270_2625)"></circle><circle cx="50" cy="28" r="4" fill="url(#paint6_linear_270_2625)"></circle><circle cx="59" cy="28" r="4" fill="url(#paint7_linear_270_2625)"></circle><circle cx="68" cy="28" r="4" fill="url(#paint8_linear_270_2625)"></circle><circle cx="77" cy="28" r="4" fill="url(#paint9_linear_270_2625)"></circle><circle cx="86" cy="28" r="4" fill="url(#paint10_linear_270_2625)"></circle><g opacity="0.48"><circle cx="95" cy="28" r="4" fill="url(#paint11_linear_270_2625)"></circle></g><g opacity="0.48"><circle cx="104" cy="28" r="4" fill="url(#paint12_linear_270_2625)"></circle></g><g opacity="0.48"><circle cx="113" cy="28" r="4" fill="url(#paint13_linear_270_2625)"></circle></g><g opacity="0.48"><circle cx="122" cy="28" r="4" fill="url(#paint14_linear_270_2625)"></circle></g><g opacity="0.48"><circle cx="131" cy="28" r="4" fill="url(#paint15_linear_270_2625)"></circle></g><g filter="url(#filter1_d_270_2625)"><path d="M82 32C82 32 89.4967 36.0639 93 36C93 36 86.3135 37 82 37C77.6865 37 71 36 71 36C74.5033 36.0639 82 32 82 32Z" fill="url(#paint16_linear_270_2625)"></path></g><defs><filter id="filter0_d_270_2625" x="0" y="0.537109" width="163" height="50.9864" filterUnits="userSpaceOnUse" color-interpolation-filters="sRGB"><feFlood flood-opacity="0" result="BackgroundImageFix"></feFlood><feColorMatrix in="SourceAlpha" type="matrix" values="0 0 0 0 0 0 0 0 0 0 0 0 0 0 0 0 0 0 127 0" result="hardAlpha"></feColorMatrix><feOffset dy="-2"></feOffset><feGaussianBlur stdDeviation="8"></feGaussianBlur><feComposite in2="hardAlpha" operator="out"></feComposite><feColorMatrix type="matrix" values="0 0 0 0 0 0 0 0 0 0 0 0 0 0 0 0 0 0 0.4 0"></feColorMatrix><feBlend mode="normal" in2="BackgroundImageFix" result="effect1_dropShadow_270_2625"></feBlend><feBlend mode="normal" in="SourceGraphic" in2="effect1_dropShadow_270_2625" result="shape"></feBlend></filter><filter id="filter1_d_270_2625" x="63" y="24" width="38" height="21" filterUnits="userSpaceOnUse" color-interpolation-filters="sRGB"><feFlood flood-opacity="0" result="BackgroundImageFix"></feFlood><feColorMatrix in="SourceAlpha" type="matrix" values="0 0 0 0 0 0 0 0 0 0 0 0 0 0 0 0 0 0 127 0" result="hardAlpha"></feColorMatrix><feOffset></feOffset><feGaussianBlur stdDeviation="4"></feGaussianBlur><feComposite in2="hardAlpha" operator="out"></feComposite><feColorMatrix type="matrix" values="0 0 0 0 0 0 0 0 0 0 0 0 0 0 0 0 0 0 0.6 0"></feColorMatrix><feBlend mode="normal" in2="BackgroundImageFix" result="effect1_dropShadow_270_2625"></feBlend><feBlend mode="normal" in="SourceGraphic" in2="effect1_dropShadow_270_2625" result="shape"></feBlend></filter><linearGradient id="paint0_linear_270_2625" x1="16" y1="18" x2="143.946" y2="50.1528" gradientUnits="userSpaceOnUse"><stop stop-color="#FCD161"></stop><stop offset="1" stop-color="#E63801"></stop></linearGradient><linearGradient id="paint1_linear_270_2625" x1="81.5" y1="20.0303" x2="81.5" y2="36.0303" gradientUnits="userSpaceOnUse"><stop stop-color="#640B00"></stop><stop offset="1" stop-color="#8E022C"></stop></linearGradient><linearGradient id="paint2_linear_270_2625" x1="15" y1="18" x2="115.484" y2="85.1567" gradientUnits="userSpaceOnUse"><stop stop-color="#FCD161"></stop><stop offset="1" stop-color="#E63801"></stop></linearGradient><linearGradient id="paint3_linear_270_2625" x1="28" y1="24" x2="36" y2="32" gradientUnits="userSpaceOnUse"><stop stop-color="#FCE361"></stop><stop offset="1" stop-color="#E63801"></stop></linearGradient><linearGradient id="paint4_linear_270_2625" x1="28" y1="24" x2="36" y2="32" gradientUnits="userSpaceOnUse"><stop stop-color="#FCE361"></stop><stop offset="1" stop-color="#E63801"></stop></linearGradient><linearGradient id="paint5_linear_270_2625" x1="37" y1="24" x2="45" y2="32" gradientUnits="userSpaceOnUse"><stop stop-color="#FCE361"></stop><stop offset="1" stop-color="#E63801"></stop></linearGradient><linearGradient id="paint6_linear_270_2625" x1="46" y1="24" x2="54" y2="32" gradientUnits="userSpaceOnUse"><stop stop-color="#FCE361"></stop><stop offset="1" stop-color="#E63801"></stop></linearGradient><linearGradient id="paint7_linear_270_2625" x1="55" y1="24" x2="63" y2="32" gradientUnits="userSpaceOnUse"><stop stop-color="#FCE361"></stop><stop offset="1" stop-color="#E63801"></stop></linearGradient><linearGradient id="paint8_linear_270_2625" x1="64" y1="24" x2="72" y2="32" gradientUnits="userSpaceOnUse"><stop stop-color="#FCE361"></stop><stop offset="1" stop-color="#E63801"></stop></linearGradient><linearGradient id="paint9_linear_270_2625" x1="73" y1="24" x2="81" y2="32" gradientUnits="userSpaceOnUse"><stop stop-color="#FCE361"></stop><stop offset="1" stop-color="#E63801"></stop></linearGradient><linearGradient id="paint10_linear_270_2625" x1="82" y1="24" x2="90" y2="32" gradientUnits="userSpaceOnUse"><stop stop-color="#FCE361"></stop><stop offset="1" stop-color="#E63801"></stop></linearGradient><linearGradient id="paint11_linear_270_2625" x1="91" y1="24" x2="99" y2="32" gradientUnits="userSpaceOnUse"><stop stop-color="#FCE361"></stop><stop offset="1" stop-color="#E63801"></stop></linearGradient><linearGradient id="paint12_linear_270_2625" x1="100" y1="24" x2="108" y2="32" gradientUnits="userSpaceOnUse"><stop stop-color="#FCE361"></stop><stop offset="1" stop-color="#E63801"></stop></linearGradient><linearGradient id="paint13_linear_270_2625" x1="109" y1="24" x2="117" y2="32" gradientUnits="userSpaceOnUse"><stop stop-color="#FCE361"></stop><stop offset="1" stop-color="#E63801"></stop></linearGradient><linearGradient id="paint14_linear_270_2625" x1="118" y1="24" x2="126" y2="32" gradientUnits="userSpaceOnUse"><stop stop-color="#FCE361"></stop><stop offset="1" stop-color="#E63801"></stop></linearGradient><linearGradient id="paint15_linear_270_2625" x1="127" y1="24" x2="135" y2="32" gradientUnits="userSpaceOnUse"><stop stop-color="#FCE361"></stop><stop offset="1" stop-color="#E63801"></stop></linearGradient><linearGradient id="paint16_linear_270_2625" x1="82" y1="37" x2="82" y2="32" gradientUnits="userSpaceOnUse"><stop stop-color="#E4C755"></stop><stop offset="1" stop-color="#F07729"></stop></linearGradient></defs></svg>
